<svg width="341" height="296" viewBox="0 0 341 296" fill="none" xmlns="http://www.w3.org/2000/svg">
<g clip-path="url(#clip0_423_14845)">
<path d="M293.742 74.8831H251.849C248.327 74.8831 245.463 72.0266 245.463 68.5155V26.744C245.463 23.2328 248.327 20.3763 251.849 20.3763H293.742C297.264 20.3763 300.128 23.2328 300.128 26.744V68.5155C300.128 72.0266 297.264 74.8831 293.742 74.8831ZM251.849 21.3952C248.886 21.3952 246.484 23.7899 246.484 26.744V68.5155C246.484 71.4696 248.886 73.8643 251.849 73.8643H281.194C291.087 73.8643 299.107 65.8679 299.107 56.0039V26.744C299.107 23.7899 296.705 21.3952 293.742 21.3952H251.849Z" fill="#74777F"/>
<path d="M293.742 74.8831H251.849C248.327 74.8831 245.463 72.0266 245.463 68.5155V26.744C245.463 23.2328 248.327 20.3763 251.849 20.3763H293.742C297.264 20.3763 300.128 23.2328 300.128 26.744V68.5155C300.128 72.0266 297.264 74.8831 293.742 74.8831Z" fill="#3F5F90"/>
<path d="M272.54 11.207C275.644 11.207 278.16 8.69823 278.16 5.6035C278.16 2.50877 275.644 0 272.54 0C269.436 0 266.92 2.50877 266.92 5.6035C266.92 8.69823 269.436 11.207 272.54 11.207Z" fill="#74777F"/>
<path d="M238.835 157.262H196.942C193.42 157.262 190.556 154.405 190.556 150.894V109.122C190.556 105.611 193.42 102.755 196.942 102.755H238.835C242.357 102.755 245.221 105.611 245.221 109.122V150.894C245.221 154.405 242.357 157.262 238.835 157.262ZM196.942 103.774C193.979 103.774 191.577 106.168 191.577 109.122V150.894C191.577 153.848 193.979 156.243 196.942 156.243C223.042 156.243 244.2 135.146 244.2 109.123C244.2 106.168 241.798 103.774 238.835 103.774H196.942Z" fill="#74777F"/>
<path d="M217.633 93.5855C220.737 93.5855 223.253 91.0768 223.253 87.982C223.253 84.8873 220.737 82.3785 217.633 82.3785C214.529 82.3785 212.013 84.8873 212.013 87.982C212.013 91.0768 214.529 93.5855 217.633 93.5855Z" fill="#74777F"/>
<path d="M334.614 208.348H292.72C289.199 208.348 286.334 205.492 286.334 201.981V160.209C286.334 156.698 289.199 153.842 292.72 153.842H334.614C338.135 153.842 341 156.698 341 160.209V201.981C341 205.492 338.135 208.348 334.614 208.348ZM292.72 154.86C289.758 154.86 287.356 157.255 287.356 160.209V201.981C287.356 204.935 289.758 207.33 292.72 207.33C318.82 207.33 339.978 186.233 339.978 160.209C339.978 157.255 337.576 154.86 334.614 154.86H292.72Z" fill="#74777F"/>
<path d="M313.412 144.672C316.515 144.672 319.031 142.163 319.031 139.069C319.031 135.974 316.515 133.465 313.412 133.465C310.308 133.465 307.792 135.974 307.792 139.069C307.792 142.163 310.308 144.672 313.412 144.672Z" fill="#74777F"/>
<path d="M80.699 211.914H38.8056C35.2842 211.914 32.4194 209.058 32.4194 205.547V163.775C32.4194 160.264 35.2842 157.407 38.8056 157.407H80.699C84.2203 157.407 87.0852 160.264 87.0852 163.775V205.547C87.0852 209.058 84.2203 211.914 80.699 211.914Z" fill="#3F3D56"/>
<path d="M64.8878 164.312C67.4442 162.98 68.4338 159.834 67.098 157.285C66.9635 157.028 66.8062 156.792 66.6374 156.568L73.5811 110.032L63.316 110.098L59.0325 155.781C57.2577 157.327 56.7002 159.933 57.8401 162.108C59.1759 164.657 62.3312 165.644 64.8878 164.312Z" fill="#FFB6B6"/>
<path d="M66.5687 77.5516C66.5687 77.5516 63.5007 76.7193 63.0548 83.4216C62.6978 88.7872 57.3356 121.479 58.8349 128.793C56.9191 129.674 55.7641 131.758 56.1617 133.922L71.6621 132.533C73.7884 129.728 73.7994 126.587 72.5809 125.93L73.8257 116.297L81.0205 84.9178L68.7972 78.114L66.5687 77.5516Z" fill="#E6E6E6"/>
<path d="M76.735 283.587L82.6254 283.587L85.4277 260.933L76.734 260.933L76.735 283.587Z" fill="#FFB6B6"/>
<path d="M84.5855 284.116V280.134L83.0369 280.228L76.7333 280.601L75.2744 280.69L74.1591 294.025L74.0994 294.74H78.2818L78.4163 294.03L79.0237 290.803L80.5922 294.03L80.9357 294.74H92.0243C92.6865 294.74 93.289 294.482 93.7321 294.055C94.2151 293.603 94.5139 292.963 94.5139 292.253C94.9819 290.073 85.7605 285.362 84.5855 284.116Z" fill="#2F2E41"/>
<path d="M50.8718 276.841L57.4532 278.137L63.5839 257.252L56.9775 255.021L50.8718 276.841Z" fill="#FFB6B6"/>
<path d="M58.2908 279.454L59.3642 275.619L57.8472 275.295L51.6752 273.964L50.2459 273.659L45.5769 286.205L45.3267 286.877L49.3552 287.998L49.6761 287.35L51.1311 284.405L51.7719 287.934L51.9114 288.71L62.592 291.681C63.2298 291.859 63.8797 291.772 64.4216 291.479C65.0086 291.173 65.469 290.637 65.6604 289.953C66.6987 287.979 59.0868 280.969 58.2908 279.454Z" fill="#2F2E41"/>
<path d="M105.909 155.915L106.06 154.326L99.5088 136.417L71.588 141.785C71.588 141.785 57.1979 159.46 60.3979 171.16C61.2657 174.332 63.1206 211.73 62.5622 212.933C49.7009 240.63 53.2939 260.168 53.2939 260.168C53.2939 260.168 57.3588 263.703 64.3217 265.455C66.1384 265.912 79.9534 203.775 79.9534 203.775C79.9534 203.775 79.3448 207.653 78.4962 213.549C75.8744 231.762 71.7561 268.429 75.4151 270.328C80.2585 272.84 84.8919 272.374 84.8919 272.374C84.8919 272.374 99.9921 227.135 96.7921 216.499" fill="#2F2E41"/>
<path d="M92.1941 78.9585L83.5706 69.7112L77.0154 69.3312L68.182 78.4491L64.9067 87.6599C61.2403 96.5399 60.4017 106.329 62.5047 115.701L67.5357 138.121C67.5357 138.121 68.3106 140.763 66.28 141.081C64.2495 141.398 64.4929 145.292 64.4929 145.292C64.4929 145.292 64.9064 148.668 62.9347 148.965C60.9629 149.262 55.7052 149.262 60.3059 155.16C64.9067 161.058 101.296 138.751 101.296 138.751L101.472 111.099C101.472 111.099 111.722 97.3721 100.684 89.5105L92.1941 78.9585Z" fill="#E6E6E6"/>
<path d="M113.907 176.256H72.0138C68.4924 176.256 65.6276 173.399 65.6276 169.888V128.116C65.6276 124.605 68.4924 121.749 72.0138 121.749H113.907C117.429 121.749 120.293 124.605 120.293 128.116V169.888C120.293 173.399 117.429 176.256 113.907 176.256Z" fill="#3F5F90"/>
<path d="M107.545 155.712C109.474 153.575 109.301 150.282 107.158 148.358C106.942 148.164 106.712 147.998 106.475 147.846L96.7059 101.818L87.1083 105.449L99.0729 149.753C97.9505 151.82 98.3394 154.456 100.168 156.098C102.312 158.022 105.614 157.85 107.545 155.712Z" fill="#FFB6B6"/>
<path d="M88.1672 78.7167C88.1672 78.7167 91.0639 77.4093 92.5713 83.956C93.7781 89.1971 104.278 120.625 103.962 128.084C105.994 128.65 107.466 130.525 107.418 132.725L91.8929 133.807C89.347 131.375 88.8358 128.274 89.9344 127.434L87.1716 118.12L75.0717 88.2772L86.0566 79.6247L88.1672 78.7167Z" fill="#E6E6E6"/>
<path d="M103.834 286.785C104.89 286.851 105.473 285.544 104.675 284.781L104.595 284.467C104.606 284.441 104.616 284.416 104.627 284.391C105.694 281.853 109.312 281.871 110.37 284.412C111.309 286.668 112.505 288.928 112.8 291.313C112.932 292.366 112.872 293.438 112.638 294.471C114.839 289.677 115.997 284.443 115.997 279.178C115.997 277.856 115.925 276.533 115.776 275.214C115.654 274.134 115.486 273.062 115.268 271.999C114.09 266.254 111.539 260.783 107.86 256.213C106.091 255.249 104.616 253.742 103.725 251.935C103.405 251.284 103.154 250.583 103.036 249.869C103.237 249.896 103.795 246.839 103.643 246.651C103.923 246.227 104.425 246.016 104.732 245.602C106.255 243.542 108.355 243.902 109.45 246.701C111.792 247.879 111.814 249.833 110.378 251.712C109.464 252.907 109.338 254.525 108.536 255.805C108.619 255.91 108.705 256.012 108.787 256.117C110.3 258.052 111.608 260.131 112.711 262.316C112.4 259.888 112.86 256.963 113.645 255.078C114.538 252.929 116.212 251.12 117.686 249.263C119.457 247.032 123.088 248.005 123.4 250.833C123.403 250.861 123.406 250.888 123.409 250.916C123.19 251.039 122.975 251.17 122.766 251.308C121.57 252.096 121.983 253.943 123.4 254.161L123.432 254.166C123.353 254.953 123.217 255.732 123.019 256.499C124.91 263.792 120.827 266.448 114.997 266.567C114.869 266.633 114.743 266.699 114.615 266.761C115.205 268.419 115.677 270.12 116.027 271.844C116.34 273.368 116.558 274.908 116.68 276.454C116.832 278.405 116.819 280.366 116.654 282.314L116.664 282.245C117.083 280.1 118.251 278.096 119.947 276.707C122.474 274.638 126.044 273.876 128.769 272.212C130.082 271.411 131.763 272.446 131.534 273.963L131.523 274.036C131.117 274.2 130.721 274.391 130.338 274.605C130.119 274.728 129.905 274.859 129.695 274.997C128.5 275.785 128.913 277.633 130.329 277.851L130.361 277.856C130.384 277.859 130.404 277.862 130.427 277.866C129.731 279.514 128.761 281.044 127.547 282.363C126.364 288.729 121.285 289.333 115.852 287.48H115.849C115.255 290.059 114.387 292.579 113.272 294.981H104.065C104.032 294.879 104.002 294.774 103.973 294.672C104.824 294.725 105.682 294.675 106.52 294.521C105.837 293.685 105.154 292.843 104.471 292.007C104.455 291.99 104.441 291.974 104.428 291.958C104.082 291.53 103.732 291.105 103.385 290.678L103.385 290.677C103.364 289.364 103.522 288.055 103.834 286.785Z" fill="#74777F"/>
<path d="M31.4667 287.804C30.4113 287.87 29.828 286.562 30.6265 285.8L30.7059 285.485C30.6955 285.46 30.685 285.435 30.6744 285.41C29.607 282.872 25.9895 282.89 24.9312 285.431C23.9919 287.687 22.796 289.946 22.5015 292.331C22.3695 293.384 22.4289 294.457 22.6632 295.49C20.4622 290.696 19.304 285.462 19.304 280.197C19.304 278.875 19.3766 277.552 19.5251 276.232C19.6472 275.153 19.8154 274.081 20.0332 273.018C21.2112 267.273 23.762 261.802 27.4413 257.232C29.21 256.268 30.685 254.761 31.5759 252.954C31.896 252.303 32.1468 251.602 32.2656 250.888C32.0643 250.914 31.5066 247.858 31.6584 247.67C31.3779 247.246 30.8759 247.035 30.5695 246.621C29.0459 244.561 26.9466 244.921 25.8508 247.72C23.5097 248.898 23.4871 250.851 24.9235 252.731C25.8374 253.926 25.963 255.544 26.7648 256.824C26.6823 256.929 26.5965 257.031 26.514 257.136C25.0012 259.071 23.6928 261.15 22.5898 263.335C22.9016 260.907 22.4413 257.982 21.6567 256.096C20.7636 253.948 19.0895 252.139 17.6153 250.282C15.8445 248.051 12.2134 249.024 11.9015 251.852C11.8984 251.88 11.8955 251.907 11.8926 251.934C12.1116 252.057 12.3261 252.188 12.5356 252.327C13.7309 253.115 13.3178 254.962 11.9016 255.18L11.8695 255.185C11.9487 255.971 12.084 256.751 12.282 257.518C10.3908 264.81 14.4738 267.466 20.3038 267.586C20.4325 267.652 20.5579 267.717 20.6866 267.78C20.0959 269.438 19.624 271.139 19.2743 272.863C18.9608 274.387 18.743 275.926 18.6209 277.473C18.4691 279.424 18.4823 281.385 18.6473 283.333L18.6374 283.264C18.2184 281.118 17.0502 279.115 15.3541 277.726C12.8274 275.657 9.25767 274.895 6.53182 273.231C5.21968 272.43 3.53826 273.465 3.76726 274.982L3.77841 275.055C4.18428 275.219 4.58024 275.41 4.96303 275.624C5.182 275.747 5.39651 275.878 5.60606 276.016C6.80129 276.804 6.38822 278.652 4.972 278.87L4.93991 278.874C4.91682 278.878 4.89701 278.881 4.87395 278.884C5.57021 280.533 6.54032 282.063 7.75465 283.382C8.93718 289.748 14.0162 290.352 19.4492 288.498H19.4525C20.0464 291.078 20.9143 293.598 22.0296 296H31.236C31.2691 295.898 31.2988 295.793 31.3285 295.691C30.4771 295.743 29.6192 295.694 28.781 295.539C29.4641 294.704 30.1471 293.861 30.8302 293.026C30.8467 293.009 30.8599 292.993 30.8731 292.976C31.2196 292.549 31.5693 292.124 31.9158 291.696L31.916 291.696C31.9377 290.383 31.7795 289.074 31.4667 287.804Z" fill="#74777F"/>
<path d="M0 295.189C0 295.525 0.27079 295.795 0.607996 295.795H130.013C130.35 295.795 130.621 295.525 130.621 295.189C130.621 294.853 130.35 294.583 130.013 294.583H0.607996C0.27079 294.583 0 294.853 0 295.189Z" fill="#CCCCCC"/>
<path d="M83.5249 63.2858C90.4198 63.2858 96.0092 57.7127 96.0092 50.8378C96.0092 43.9629 90.4198 38.3898 83.5249 38.3898C76.63 38.3898 71.0405 43.9629 71.0405 50.8378C71.0405 57.7127 76.63 63.2858 83.5249 63.2858Z" fill="#FFB6B6"/>
<path d="M95.2021 50.3519C95.2379 50.3519 95.3248 50.3519 95.4882 50.357C95.9634 50.3876 95.3197 50.3621 95.2021 50.3519Z" fill="#2F2E41"/>
<path d="M101.849 49.165C101.757 49.3892 101.456 49.5726 101.031 49.7203C100.224 48.6964 99.1769 47.866 97.9814 47.3515C98.5179 48.2226 98.9573 49.1497 99.2842 50.1176C98.1245 50.2857 96.8319 50.3571 95.9992 50.3621C95.7999 50.3621 95.6262 50.3621 95.4883 50.3571C95.2839 49.9954 94.9569 49.4095 94.676 48.8033C94.6504 50.4589 92.336 55.3391 92.5251 59.4653C92.755 64.4014 93.0155 69.7859 93.0155 69.7859C92.1828 69.9948 91.1763 70.1425 90.0268 70.2342C88.7598 67.9164 87.8197 65.3235 87.3139 62.6949C87.2577 62.4148 87.2118 62.1346 87.1658 61.8544C87.0585 62.1753 86.9563 62.5014 86.8695 62.8325C86.4863 64.2079 86.2615 65.6903 86.19 67.2287C86.1389 68.2424 86.1593 69.2714 86.236 70.3157C79.9315 71.5943 72.1353 71.4619 66.495 68.3392C66.684 67.8247 66.8271 67.2949 66.919 66.7549C67.2255 64.9822 64.7528 64.7326 63.1077 65.8176C61.4627 64.1722 60.2161 62.0836 59.5417 59.4704C70.2909 54.7685 58.9746 48.9816 67.2766 40.6426C66.2753 33.3988 86.333 31.3051 90.2158 37.7441C91.0639 37.1022 93.7052 37.1328 94.8292 37.6014C95.9532 38.0701 96.8217 38.8597 97.6698 39.6238C98.2369 40.1434 97.9712 41.1775 97.6085 41.9518C99.3915 41.1011 103.371 45.5227 101.849 49.165Z" fill="#2F2E41"/>
</g>
<defs>
<clipPath id="clip0_423_14845">
<rect width="341" height="296" fill="white"/>
</clipPath>
</defs>
</svg>
